<svg version="1" xmlns="http://www.w3.org/2000/svg" width="1200" height="1200" viewBox="0 0 900.000000 900.000000"><path d="M238.7 100.7c-1.4.4-1.7 1.3-1.5 3.6.3 2.7.7 3.2 3.3 3.5 4.2.4 23.9 5.8 30.3 8.2 12.9 4.9 31.4 15.5 43.5 24.7 3.4 2.6 10.7 8.8 16.2 13.7 5.5 5 8.9 7.7 7.5 6l-2.5-2.9 2.7 2.4c1.5 1.3 2.5 2.7 2.3 3.1-.7 1.2 6.6 9.1 7.7 8.4.7-.4.8-.2.4.5-.4.6 0 1.4.8 1.7 4.7 1.8 21.7 30.2 32.6 54.2 16.1 35.6 27.4 79.4 32.4 125.4l1.2 11.5-5.5 2.9c-8.6 4.4-20.1 13.6-25.2 20.1-12.9 16.1-17.5 28.8-18.6 51l-.6 11.1-13.4 6.2c-51.4 23.5-93.2 35.1-137.1 38.2-38.6 2.7-75.9-4-107.7-19.2-17.4-8.3-37.5-22.8-48.9-35.1-5.6-6-5.7-6.1-8.1-4.5-1.4.9-2.5 1.9-2.5 2.2 0 1 40.2 40.9 41 40.7 1.7-.5 33.5 37.1 32.6 38.5-.3.5.4 1.8 1.7 2.8l2.2 1.9-2-2.4c-1.1-1.4-1.4-2.1-.7-1.7 1.8 1.1 9.7 12.9 9.3 14.1-.1.5.1.7.5.3 1.7-1.7 40.4 53.5 57.6 82.2 12.5 20.7 20.8 36.3 36.4 68 17.9 36.4 25.7 56 38 96.4 3 9.9 5.9 18.6 6.5 19.3 1.4 1.7 3 1.7 5.3 0 1.7-1.3 1.7-1.6.3-3.8-2.6-3.9-8.5-25.9-10.3-38.1-2.4-16.5-1.5-44.8 2-61.6 11.6-55 42.3-103.8 97.2-154.4 8.2-7.6 19.6-17.3 25.3-21.6l10.4-7.8 7.3 4.1c9.6 5.5 24.7 9.6 37.9 10.2 15.7.8 33-3.4 45.9-11.2l5.8-3.5 8.1 6.3C520 526.7 532.8 538 549 554c8.5 8.4 15.8 15.3 16.2 15.2.3-.1 1.2.5 1.8 1.3.7.8.9 1.5.6 1.5-.4 0 .2 1.4 1.4 3 1.2 1.7 2.5 2.8 3 2.5.5-.3 1.2 0 1.6.6.5.8.2 1-.7.5-.8-.5.4.9 2.6 2.9s3.3 3.3 2.6 2.9c-.9-.4-.5.6.8 2.4 1.2 1.8 2.6 3 3.1 2.7.8-.5 13.2 16.8 19.3 27 7.6 12.9 17.5 34.9 23.3 52 13.8 40.4 13.5 87.1-.7 122.3-2.3 5.6-1.6 8.2 2.1 8.2 2.7 0 3.5-1.6 6.9-13.5 6.4-21.8 14.1-43.2 23.9-66.1 6.6-15.3 22.8-50.2 24.1-51.9.5-.5 4.1-7.3 8.1-15 15.7-30.6 42.1-71.8 68.9-107.5 6.4-8.5 12.3-16.6 13.2-18 7-10.7 56.6-65.9 71.4-79.3 4.7-4.3 8.5-8.3 8.5-8.8s-.9-1.9-2-3.1l-1.9-2.1-10.4 9.9c-59.8 57-148 66.6-253.5 27.5-17.8-6.6-49.5-20.8-51.7-23.2-.7-.9-.7-1 .1-.6 2 1.1 2.5-3.8 1.4-13.3-1.7-15-5.5-28-8.1-28-.7 0-1-.3-.6-.6.3-.3.2-1.1-.3-1.8-.6-.6-3.8-5.4-7.2-10.5-3.5-5.2-8.1-11.2-10.3-13.4-4.6-4.5-18.3-13.7-20.3-13.7-1 0-1.2-.8-.8-2.8.3-1.5 1.2-8.3 2.1-15.2 8.7-70.4 32.1-132.9 64.5-172.5 7-8.6 25.4-26.4 33.5-32.6 14.4-11 29.7-19.8 45.1-26 8.5-3.3 26.2-7.9 30.8-7.9 2.7 0 2.8-.2 2.3-3.6-.3-2-.8-3.8-.9-4-.2-.1-6.6 1.2-14.3 3.1-132.2 31.6-284.6 31-397.3-1.5-5.6-1.7-10.3-2.9-10.5-2.9-.1.1-1 .3-2 .6zM626 113.2c-17.4 7.5-28.5 13.8-37.4 21.4-3.6 3.1-7 5.3-7.5 5-.5-.4-1.3-.1-1.7.5-.4.8-.3.9.4.5 1.8-1.1 1.4 0-.5 1.5-1.1 1-1.4 1-.9.1.4-.7.2-1.2-.5-1.2-2.3 0-32.4 31.5-39.1 41-8 11.3-19.6 32.1-26.8 48-6.9 15.4-16.3 43.4-16.3 48.7 0 2.6-.4 4-1 3.6-.6-.4-.8.1-.4 1.1.4.9-1.1 9-3.3 17.9-5.2 20.7-7.6 34.4-9.2 50.7-.9 10.5-1.5 13-2.6 12.5-.8-.3-2.4-.8-3.7-1.1l-2.3-.6 2.2-2.1c1.9-1.9 2.5-4.8 4.5-22.7 1.2-11.3 2.9-23.7 3.6-27.5 1.2-6.8 1.3-6.9 1.5-2.5.2 4.3.2 4.4 1.1 1.5.5-1.7 2.7-10.4 4.9-19.5 8.3-34.8 18.8-63.2 31.8-86.7 2.7-4.8 5.9-10.6 7.2-12.8 10.1-18.1 34.2-42.8 55.3-56.4 3.7-2.4 6.7-5 6.7-5.7 0-2.1-4.4-1.7-6.6.7-1 1.1-2.8 2.6-3.9 3.2-1.8.9-1.9.9-.6-.6 2.6-3.2-.7-1.7-8.4 3.9-28.1 20.1-50.4 50-68 91-14.5 33.8-24.7 77-30 128.2-.6 5.2-1 6.2-2.3 5.7-7.7-2.9-28.3-3.8-38.4-1.6-4 .9-6.3.9-7.5.2-1.2-.7-1.3-1-.5-1.1 1.6 0 1.4-2.6-1.9-27.5-3.2-23.9-8.9-50.8-15-70.5-4.3-13.8-7.2-20.9-8.2-20.3-.6.3-.7.1-.3-.6 1-1.6-.3-5.3-1.6-4.5-.6.4-.8-.1-.4-1.2.3-1.1.1-2.6-.4-3.4-.5-.8-1-1.1-1-.5 0 1.3-2-1.7-2-3 0-.6.5-.3 1 .5 1.1 1.7 1.3 1 .4-1.4-.3-.9-.9-1.4-1.3-1.2-.4.3-2.2-3-4-7.2-4.1-9.4-13.7-27.1-20-37-10.4-16.6-27.7-35.3-41.8-45.4-4-2.8-7.1-5.3-7-5.5.2-.1 2.3.4 4.8 1.1 5.5 1.7 31.4 6.1 47.4 8.1 58.8 7.3 121.3 5.5 182.5-5.2 11.3-2 21.8-3.7 23.3-3.8 3.4-.2 5.2-1.8 4.4-3.9-.9-2.4-4.4-2-29.4 3-18.1 3.6-25.3 4.7-34.8 4.9-6.6.1-20 .8-29.8 1.5-20.1 1.4-83.2.9-100.7-.9-5.8-.6-12.7-1.3-15.5-1.5-3.4-.4-4.4-.2-3 .4 3.6 1.6-.1 1.1-21.7-3.1-27.9-5.4-30.8-5.7-32.4-3.5-1 1.4-1.6 1.5-3.4.6-1.1-.6-3.3-1-4.7-.8l-2.7.3 2.5 2.5c1.3 1.4 3 2.6 3.8 2.8.7.2 3.3 1.6 5.7 3.2 4.6 3.2 6 3.7 4.8 1.8-.4-.7.7-.2 2.4 1.1 1.8 1.2 3 2.6 2.7 3.1-.3.5 0 1.2.6 1.6.8.4.9.3.5-.4-1.9-3.1 1.2-.6 6.6 5.2 3.2 3.6 8.1 8.1 10.8 10.1 2.8 2 4.8 4.1 4.5 4.5-.3.5.8 1.8 2.5 3 1.6 1.2 2.9 2.5 2.7 3-.1.4.1.7.5.6 1-.1 10.8 13.3 10.8 14.8 0 .6 1.6 3.6 3.5 6.6 9.2 14.2 22.5 43.9 29.5 65.7 3.6 11.1 10.5 37.1 12.5 47.1.4 1.8 1 3 1.5 2.7.4-.2 1.1 1.4 1.4 3.8 1.5 9.1 3.5 25.8 4.6 37.6.6 6.9 1.5 13.2 2 14 .6 1.2-.1 2-2.6 3.2-3.2 1.5-3.3 1.5-2.3-.2 1.1-2.1 0-13.2-3.2-32.3-1.1-6.5-1.8-12-1.6-12.3.3-.2.8 1.2 1.1 3.3.4 2 .9 3.4 1.2 3.1.8-.8-3.5-24.4-7.2-39.7-4-16.5-9.7-33.9-15.3-47.3-5.5-13.2-6.3-14.7-7.2-14.1-.5.3-.6-.3-.2-1.2.4-1.2.3-1.5-.5-1-.8.4-1 .2-.6-.8.6-1.5-8.8-19.5-13.5-25.6-1.4-1.9-2.5-3.8-2.3-4.3.4-1.2-10.2-15.8-18.5-25.3-9.9-11.5-20-21.2-29-28-8.2-6.2-10.2-6.9-5.3-1.9 1.9 1.9 3 3.5 2.5 3.5s.2 1.2 1.6 2.7l2.4 2.8-2.7-2.4c-1.6-1.4-2.6-2.7-2.3-2.9.7-.7-1.5-3.2-2.7-3.2-.6 0-.4.8.3 1.7 1.3 1.6 1.2 1.7-.4.4-.9-.8-1.5-1.6-1.2-1.9.7-.7-2.5-4.2-3.8-4.2-.6 0-.2 1 .9 2.2 1.4 1.6 1 1.5-1.8-.6-2.1-1.6-3.8-3.1-3.8-3.4 0-.3.5-.1 1.2.6 1.5 1.5 3.2 1.6 2.2.1-.9-1.5-12.4-8.9-21.5-13.8-4.1-2.3-7.1-4.1-6.8-4.1.3 0 4.8.9 10 2 8.6 1.8 49.1 7.7 66.9 9.9l7.5.8-8 .3-8 .2 6.5 1.4c18.4 3.7 39.4 4.9 91 4.9 32.5 0 55.7-.4 65-1.3 30.5-2.6 49.1-6 34.4-6.3-4.5-.1-3-.4 6.6-1.5 16.3-1.7 35-4.7 55.8-8.9 17.8-3.6 22.6-4.2 18.2-2.3zm-102.3 16.4c-.3.3-1.2.4-1.9.1-.8-.3-.5-.6.6-.6 1.1-.1 1.7.2 1.3.5zm-145 5c-.3.3-1.2.4-1.9.1-.8-.3-.5-.6.6-.6 1.1-.1 1.7.2 1.3.5zm141.6.1c-.7.2-1.9.2-2.5 0-.7-.3-.2-.5 1.2-.5s1.9.2 1.3.5zm51.7 3.7c0 .2-.8 1-1.7 1.7-1.6 1.3-1.7 1.2-.4-.4 1.3-1.6 2.1-2.1 2.1-1.3zm-4 2.9c0 .2-1 1.2-2.2 2.3l-2.3 1.9 1.9-2.3c1.8-2.1 2.6-2.7 2.6-1.9zm-5 4c0 .1-3.7 3.8-8.2 8.2l-8.3 8 8-8.3c7.4-7.6 8.5-8.7 8.5-7.9zm-235.4 3.9l2.9 3.3-3.2-2.9c-3.1-2.8-3.8-3.6-3-3.6.2 0 1.6 1.5 3.3 3.2zm170.1 110c-.3.8-.6.5-.6-.6-.1-1.1.2-1.7.5-1.3.3.3.4 1.2.1 1.9zm-11 37c-.3.8-.6.5-.6-.6-.1-1.1.2-1.7.5-1.3.3.3.4 1.2.1 1.9zm-1 6c-.3.7-.5.2-.5-1.2s.2-1.9.5-1.3c.2.7.2 1.9 0 2.5zm-36 58.4c-.3.3-1.2.4-1.9.1-.8-.3-.5-.6.6-.6 1.1-.1 1.7.2 1.3.5zm-11 1c-.3.3-1.2.4-1.9.1-.8-.3-.5-.6.6-.6 1.1-.1 1.7.2 1.3.5zm7.8 4.8c-.7 3.7.2 7.9 1.5 7.1.4-.3 1 .2 1.4 1 .6 1.8 3.2 2 4.2.3.4-.7.3-.8-.4-.4-.8.5-1.2-.5-1.2-3.3 0-5.2.8-7.1 3.1-7.1 1.7 0 1.7.3.4 4.7-.8 2.5-1.2 5-.9 5.5.3.5-.2 1.8-1.1 2.8-.9 1-1.4 2.3-1.1 2.8.3.6-.1 1.3-1 1.6-2.5 1-9.4.7-9.4-.4 0-.6-.7-1-1.5-1s-1.5.9-1.5 2.1c0 1.6.5 1.9 2.3 1.5 1.2-.3 1.6-.3 1 0-2 .9-1.5 2.4.8 2.4 1.5 0 1.9-.5 1.5-1.5-.3-.8-.3-1.5 0-1.5s1 1.4 1.6 3.1c.7 1.9 1.3 2.7 1.8 1.9.5-.8.9-.7 1.4.5 1 2.6.1 3.2-4.1 2.6-3.5-.4-3.6-.5-1.3-1.2 2.2-.6 2-.7-1.2-.8-2.8-.1-3.8.3-3.8 1.4 0 .8.8 1.5 1.8 1.5 1.5.1 1.5.2-.2 1.5-1.9 1.4-1.8 1.5 1.5 1.5 2 0 3.9.3 4.3.7.4.5 1.3.8 1.9.8.7 0 1.2.6 1.2 1.2 0 .7-.3 1.3-.7 1.3-5.2 0-5.3 0-3.8-1 1.1-.7.5-1-2.2-1-3.6 0-3.8.2-3.8 3.1 0 3 .1 3.1 4.1 2.7 3.6-.3 4-.2 3.5 1.7-.3 1.1-.6 4.4-.6 7.2 0 4.4-.3 5.3-1.8 5.3-1 0-3.5.9-5.7 2s-4.3 2-4.7 2c-.5 0-2.9-1.9-5.4-4.2l-4.5-4.1 3.1-3.2 3-3.1-2.3-2.2c-2.3-2.2-2.4-2.2-4.1-.3-1 1.1-1.5 2.4-1.2 2.9.3.5-.4 2.2-1.6 3.7-1.6 2-2.3 2.4-2.9 1.3-1.3-2-1.1-2.8 1-2.8 1.1 0 2.3-.5 2.7-1.2.5-.8.2-.9-.9-.5-2.4.9-2.1-1.2.5-4 1.8-1.9 2-2.6.9-3.2-.7-.5-1.2-1.2-1.1-1.7.3-1.9-1.7-1.3-4 1.1-1.3 1.4-2.7 2.5-3.2 2.5-1.5 0-.8-2.7 1.2-4.5 2.4-2.2 2.6-4 .4-3.1-1.4.5-1.5.4-.5-.7.9-1.1.8-1.7-.4-2.7-1.2-1-1.6-.9-2.1.4-.4.9-.4 1.9-.2 2.2.7.7-4.2 5.8-6.9 7.3-1.9 1-2.3.9-2.3-.4 0-1-1-1.5-3.1-1.5-1.8 0-2.8-.4-2.4-1 .4-.6-1.6-2.1-4.3-3.3-4.7-2.2-4.9-2.4-3-3.6 1.7-1 2.5-1 4.4 0 1.3.7 2.4 1.8 2.4 2.6 0 .7.2 1.3.4 1.3s1.2.3 2.2.7c1.4.5 1.6.2 1.2-1.5-.4-1.5-.2-1.9.8-1.5 2.5.9 1.5-1.8-1.7-4.8-2.6-2.4-2.9-3.2-1.9-4.4 1.6-1.9 5-.2 5 2.5 0 3.1 1.1 4.9 2.6 4.3.9-.3 1.4.2 1.4 1.6 0 2.4 2.5 2.9 3.4.6.3-.9 0-1.5-.9-1.5-1.8 0-2-1.7-.3-2.2.7-.3.8-1 .4-1.7-.7-1.1-1-1.1-1.7 0s-.9 1-.9-.4c0-1-.7-3.1-1.5-4.7-1.5-2.9-1.5-2.9 2.8-5.8 4.9-3.4 15-7.9 22.2-9.8 6.6-1.8 6.5-1.8 6.5 1.3 0 1.6.9 3.9 2 5.3s2 3.3 2 4.2c0 .9.4 1.9.9 2.3 1.6.9 2.3-1.3 1.1-3.5-.9-1.6-.8-1.8.5-1.4 1.6.6 1.9-.4.9-3-.3-.9-1-1.4-1.4-1.1-.5.3-1.1.1-1.5-.5-.3-.5-.1-1 .6-1s.9-1 .7-2.4c-.4-1.9 0-2.6 1.6-2.9 1.2-.2 2.2-.5 2.4-.6.2 0 0 1.4-.3 3.3zm24.3.6c6.9 1.9 23.2 9.4 23.2 10.6 0 .3-1.1 2-2.4 3.7-3.9 5.2-5.6 14.6-2.1 11.7.9-.8 1.5-.8 2 0 1.2 1.9 3.2 1.1 2.8-1.3-.4-2.6 2.7-8.1 5.6-9.7 3.5-1.8 2.6 1.7-1.6 6.3-2.1 2.3-3.1 4.3-2.5 4.5.8.2.7 1.1-.4 2.7-.9 1.3-1.5 2.6-1.5 2.9 0 .3-.2 1.3-.5 2.1-.8 2-5.4 2-5.4 0 0-.8-1-2.3-2.2-3.5-2-1.8-2-2-.4-2s1.6-.2.6-1.6c-1.2-1.3-1.5-1.3-3.4.5l-2 2.1 2.2 2.3c1.2 1.3 2.2 2.8 2.2 3.4 0 .6.5 1.3 1.1 1.5.6.2-1.3 2.8-4.2 5.7-3.5 3.4-5.5 4.8-5.7 4-.3-.8-.9-1.9-1.4-2.6-.7-.8-.3-1 1.3-.6 1.9.5 2 .4 1.1-1.4-.6-1.1-1.8-2.6-2.7-3.3-1.3-1.1-1.9-1-3.5.5-2.5 2.2-2.5 3.1-.2 3.7 3 .8 2.3 4.3-1.6 8.1l-3.7 3.6-6.8-2.6-6.7-2.7v-4c0-7.4.8-8.6 5.1-8.6 3.1 0 3.9-.4 3.9-1.9 0-2.5-2.8-4.6-5.5-4.3-1.3.2-2.6-.2-3-.7-.4-.7.8-1.1 3.5-1.1 2.9 0 4.2-.5 4.7-1.7.4-.9.1-1.9-.5-2.1-.7-.2-1.2-1-1.2-1.8 0-.9-1.1-1.4-3.5-1.4-1.9 0-3.5-.5-3.5-1 0-.6 2-1 4.5-1 3.8 0 4.5-.3 4.5-2 0-1.1-.7-2-1.6-2-.8 0-1.2-.5-.9-1 .3-.6-.1-1-1.1-1-1.3 0-1.2-.5.9-2.6 1.4-1.4 3.1-4.7 3.8-7.5.7-2.7 1.3-4.9 1.4-4.9 0 0 3.3.9 7.3 2zm-69.3 10c-.3.5-1.1 1-1.6 1-.6 0-.7-.5-.4-1 .3-.6 1.1-1 1.6-1 .6 0 .7.4.4 1zm105.2 7.4c-.1.1-1.8 1.4-3.7 3.1-2.9 2.5-3.1 2.6-1.2.4 1.2-1.4 2.2-3.6 2.2-5 .1-2.3.1-2.3 1.5-.5.8 1.1 1.4 2 1.2 2zm-113.7-.5c-.5 1.1-1.9 2.2-3 2.6-1 .3-2.5 2.2-3.2 4-.6 1.9-2 3.7-3 4.1-1 .3-1.8.8-1.8 1.2 0 .4-1 1.8-2.1 3.2-2.8 3.4-1.3.6 2.9-5.5 2.8-4.1 9.9-11.4 11-11.5.1 0-.2.9-.8 1.9zm116.7 7c.2 2-6.1 6.1-9.3 6.1-1.5 0-1-.9 2.1-4 4.4-4.3 7-5.1 7.2-2.1zm4.3 2c0 .3-1.7 1.4-3.8 2.4l-3.7 1.9 2.9-3c1.7-1.8 2.5-3.6 2.1-4.4-.3-.7.1-.4.9.6.9 1.1 1.6 2.2 1.6 2.5zm9.5 23.4c3.5 10.8 3.4 11.2-2.1 12.7-2.6.7-5.9 2.4-7.5 3.8-2.9 2.4-2.9 2.4-2.9.2 0-1.8-.5-2.1-3.2-1.8-3 .3-3.3.6-3.6 4-.4 5.1-2.2 4.9-2.2-.2 0-3.8-.2-4-3-4s-3 .2-3 4c0 2.2-.4 4-1 4-.5 0-1-1.8-1-4 0-3.8-.2-4-3-4s-3 .2-3 4v4h-6.2c-7-.1-10.2-1.7-9.2-4.6.5-1.6.4-1.6-.5-.4-.9 1.3-1.1 1.3-1.1 0 0-.8-.7-2.8-1.6-4.5-.8-1.6-1.2-2.7-.9-2.3.3.3 2.7-1.6 5.2-4.3l4.6-5 2.9 2.8 2.8 2.7 2.2-2.2 2.2-2.1-3.2-3c-3.3-3.2-2.9-4.7 1-3.2 1.2.6 1.9 1 1.5 1-.4.1-.3 1 .4 2.2l1.1 2.1 2.4-2.3 2.4-2.3-3.1-3.2c-2.2-2.3-2.7-3.4-1.8-4 .8-.5 2.2.4 3.9 2.4l2.6 3.2 2.5-2.6c2.4-2.5 2.4-2.6.5-4-1.9-1.3-1.8-1.4 1-1.4 2.7 0 7.3-1.9 13.4-5.5 2.5-1.5 2.5-1.4 5.2 4.3 1.5 3.1 3.9 9.2 5.3 13.5zm-133.1-15.8c5.5 2.8 8.1 3.1 9 1.2.3-.6.4 0 .2 1.5-.2 2.1.1 2.8 1.3 2.8s1.3.2.3.9c-1 .6-1 1 .1 1.9 1.1.9 1.9.6 3.7-1.3 1.3-1.4 2.7-2.5 3.2-2.5 1.6 0 .8 3-1.2 4.2-2.5 1.6-2.6 2.8-.2 2.9 1.1 0 1.2.2.4.6-1 .4-1 .8-.1 1.9 1 1.3 1.6 1.1 4-1.2 3.6-3.4 5.1-2.3 1.8 1.2-2 2.1-2.1 2.7-.9 3.4.8.5 1.1 1 .6 1-.5 0-.3.7.4 1.5 1.2 1.4 1.6 1.3 3.9-.9l2.7-2.6 4.6 3.8c4.5 3.5 5.9 6.4 3.8 7.7-.5.3-1.6 2.7-2.3 5.3l-1.4 4.7h-12.8l-.3-3.8c-.3-3.4-.6-3.7-3.3-3.7-2.7 0-2.9.3-2.9 3.6 0 2.7.4 3.5 1.4 3.1 1.3-.5 3.1 3.1 2.1 4.1-.6.7-5.5-.8-5.4-1.6.1-.4.1-2.6 0-5-.1-4-.3-4.2-3.1-4.2-2.8 0-3 .2-3 4.1 0 3.4.2 3.9 1.4 3 1.1-.9 1.5-.7 1.9.9.3 1.1.1 2.3-.4 2.6-1.1.6-4.9-.4-4.8-1.4.1-.4.1-2.6 0-5-.1-4.3-.2-4.3-3.3-4-1.8.2-3.3.9-3.3 1.5 0 .7.5 1.3 1 1.3 1.5-.1 2.2 6.2 1 8.2-1 1.9-5.5 2.5-5.5.9 0-.5-.9-1.3-2-1.6-1.1-.4-1.8-1.1-1.5-1.6.4-.5-1.5-.9-4.3-.9-3.4 0-5.4-.5-6.3-1.7-1-1.1-1-1.4-.1-.9.6.4 1.2.2 1.2-.3 0-1.8 4.2-1.3 8.4 1 3.7 2 3.9 2 3.4.1-.4-1.5-.1-1.8 1.9-1.4 1.7.3 2.2.1 1.8-1-.7-1.9-7-5.4-11.2-6.3-3.7-.7-3.7-.9 0-12 2.3-7 8-18.5 9.1-18.5 0 0 2.3 1.1 5 2.5zm25.9 3c-2.5 3.1-4.3 4.4-4.3 3.1 0-.2-.3-1.2-.6-2-.4-1.1-.2-1.5.7-1.1.8.2 2.5-.4 3.9-1.5 3.5-2.7 3.5-2.5.3 1.5zm33 15.6c-1.7 1.7-3.7.1-2.2-1.7.8-1 1.5-1.2 2.3-.4.7.7.7 1.3-.1 2.1zm-2.7 8.1c0 2.9.2 5.3.6 5.3.4 0 1.4.9 2.1 2 1.3 1.7 1.8 1.8 4.1.7 2.3-1 2.5-1 1.6.6-.5.9-1.2 3.4-1.5 5.4-.4 2.6-1.1 3.8-2.3 3.9-.9 0-3 .2-4.5.4-2.1.3-2.7 0-2.5-1.3.2-.9-.7-2.1-1.9-2.7-1.3-.7-2-1.5-1.6-1.8.3-.4-1.6-.7-4.4-.7-2.7 0-5.2-.3-5.6-.6-.5-.5.4-2.4 2.9-6.2.1-.2 1.3.2 2.6.9 1.2.7 2.6 1.2 3 1.1.4-.1.5.4.3 1.1-.3.6.4 1.8 1.5 2.5 1.8 1.1 2 1 2-.8 0-1.1.4-1.9.9-1.8.9.3 1.1-.2 1.1-2.2 0-.5-1.6-2-3.6-3.4l-3.6-2.4 2.3-1.4c1.3-.7 3.3-1.9 4.4-2.5 1.1-.7 2.1-1.2 2.1-1.2.1-.1.1 2.3 0 5.1zm19.8-2.7c-1.9 2.9-2.9 3.1-3.8.9-.9-2.2-.9-2.2 2.2-2.7 1.5-.2 2.8-.5 3-.6.1 0-.5 1-1.4 2.4zm-31.5.6c-.8 1.6-2.9 2.7-2.9 1.5 0-.2-.2-1-.5-1.8s.3-1.3 2-1.4c2.1-.2 2.3.1 1.4 1.7zm24.9.3c.5.6-5.9 8.4-7 8.5-.9.1-1-5.5-.2-8.6.5-1.8 1-2 3.6-1.2 1.7.4 3.3 1.1 3.6 1.3zM529 429c0 1.6-.6 2-3.2 1.9-2.9 0-3-.1-1.2-.9 1.2-.5 2.5-1.3 2.9-1.9 1-1.6 1.5-1.3 1.5.9zm1.7 3.7c-.3 1-.5.2-.5-1.7s.2-2.7.5-1.8c.2 1 .2 2.6 0 3.5zm-63.7.2c0 .9.3 2.6.6 3.8.6 2.2.3 2.3-4.5 2.3-2.8 0-5.1-.3-5.1-.7 0-1.1 6.4-6.8 7.8-6.9.6 0 1.2.6 1.2 1.5zm60.4 2.8c-.6 2.2-.4 2.5 1 2 .9-.4 1.6-.1 1.6.6 0 2.5-1.6 3.6-4 3-2.2-.6-2.3-.7-.4-1.4 1.3-.5.2-.8-3.3-.8-2.9-.1-5.3-.5-5.3-1.1 0-.5 2.1-1.6 4.8-2.4 2.6-.7 4.6-1.9 4.4-2.6-.1-.6.2-.9.8-.5.5.3.7 1.8.4 3.2zm-133.8 1c-1.1 1.1-1.9-.6-1.1-2.4.8-1.7.8-1.7 1.2 0 .3 1 .2 2.1-.1 2.4zm117.9-.8c3.1-1.2 3.9-1 2.5.6-.7.8-1 2.1-.7 2.8 1.1 2.8-4.5 6.8-6 4.3-.5-.7-1.7-1.7-2.7-2.3-1.9-1-1.8-1.1.2-1.7 1.3-.5 2.2-1.6 2.2-2.8 0-1.5.3-1.8 1.3-1 .7.5 2.1.6 3.2.1zm-83.5 5.5c-.5.5-1.6.6-2.4.3-1.5-.6-1.4-.9.1-2.7 1.6-1.9 1.8-1.9 2.4-.3.4 1 .3 2.2-.1 2.7zm43.7.2c-.3.4-1.8.3-3.2 0l-2.6-.7 2.3-1.9c2.3-1.8 2.3-1.8 3.2.1.5 1 .6 2.2.3 2.5zm27.4-.3c-.5.5-1.9.6-3.2.2l-2.2-.7 2.4-1.3c1.8-1 2.6-1 3.1-.2.4.7.3 1.6-.1 2zm-128.6-1.4c.3.5.1 1.2-.5 1.6-.5.3-1-.1-1-.9 0-1.8.6-2.1 1.5-.7zm121 0c.8 1.4-1 2.2-3 1.5-1.3-.5-1.4-.8-.3-1.5 1.7-1.1 2.6-1.1 3.3 0zm-25 9.1l-1.6 3.1-4.2-3.3-4.1-3.3 5.2-.3c3.1-.2 5.2-.8 5.3-1.5.1-.7.3-.4.6.5.2.9-.3 3.1-1.2 4.8zm60.9-2.6c-.7 3.1-2.4 3.2-7.9.7l-4-1.9 5.8-.1c3.6-.1 5.7-.5 5.7-1.3 0-.6.2-.9.5-.6.4.3.3 1.7-.1 3.2zM400.1 453c2.7 0 2.9-.2 2.9-3.9 0-4.9 2-6.6 2.1-1.9.1 1.8.1 3.9 0 4.6-.2.9.8 1.2 3.1 1 3-.3 3.3-.6 3.6-4.1l.3-3.7H425l1.6 3.7c3.5 8.4 3.6 7.7-1.5 12.7l-4.7 4.6-2.2-2c-2.7-2.5-3.4-2.5-5.8.1-1.8 2-1.8 2.1 1.3 5 3.8 3.5 4.7 3.6 4.1.6-.4-2-.1-2.3 1.9-1.9 1.3.2 2.3.5 2.3.7 0 .6-8.3 8.5-9 8.5-.4 0-1-.9-1.3-1.9-.3-1.3 0-1.8.8-1.5 2.6 1 2.4-1.4-.4-4l-2.7-2.6-2.2 2.3-2.1 2.2 3.4 3.7c3 3.1 3.2 3.8 1.9 4.9-.8.6-1.3 2.1-1.2 3.3.2 1.6-.5 2.3-3.2 3.2-3 1-3.6 1-3.9-.4-.2-.9-1.1-2.2-2-2.9-1.3-1-1.3-1.2-.1-1.3 1 0 1.1-.3.3-1.1-1.3-1.3-7.3.4-11.4 3.2-2.6 1.8-2.6 1.8-5.1-.9-2.7-2.9-5.3-7.3-5-8.4.1-.4-.5-2.3-1.3-4.2-.8-2-2.1-6.2-2.9-9.4l-1.3-5.9 4.6-1.2c2.5-.7 6-2.3 7.8-3.7l3.3-2.5-.3 2.3c-.2 1.9.3 2.4 3.1 2.6 3.1.3 3.2.2 3.2-3.6 0-5.6 1.4-6.2 1.8-.8.3 4.4.5 4.6 3.3 4.6zm96.1-4.2c.1 3.9.3 4.2 3 4.2 2.6 0 2.8-.3 2.8-4 0-2.7.4-4 1.4-4 .9 0 1.2.8.8 2.5-.2 1.4 0 2.5.7 2.5.5 0 .8.7.5 1.5-.5 1.1.1 1.5 2.5 1.5 2.5 0 3.1-.4 3.1-2.1v-2l2.9 2c1.5 1.1 4.9 2.6 7.5 3.3 4.5 1.2 4.6 1.3 4 4.3-1.3 6-3.7 12.1-7.5 19.3-4.5 8.5-4.7 9.2-1.8 6.6 2.2-1.9 2.2-1.9 1.1.1-.5 1.1-2 2.9-3.2 4-1.8 1.6-2.3 1.7-3 .5-.7-1.1-.5-1.6.5-1.8.8-.2 1.5-.8 1.5-1.3 0-1.2-9.8-5.9-12.5-5.9-1.1 0-2.7-.5-3.5-1-1.2-.8-1.1-1 .8-1 1.2 0 2.2-.5 2.2-1.1 0-.6-.6-.9-1.4-.6-1 .4-1.2 0-.9-1.4.8-2.7-1.9-2.4-4.7.6-3.3 3.5-4.6 2-1.5-1.7 1.5-1.7 2.2-3.4 1.7-3.7-.4-.3-1.2-1.5-1.6-2.5-.6-1.8-.9-1.7-3.9 1.3-4.1 3.8-5.8 2.9-2-1.1 2.1-2.2 2.5-3.1 1.4-3.7-.7-.5-1.1-1.2-.9-1.7.7-2-3-1.3-5.1 1l-2.4 2.5-4.7-4.2-4.7-4.2 2.3-4.5c1.3-2.5 2.6-5.3 2.8-6.3.4-1.4 1.7-1.7 7.1-1.7h6.5v4c0 3.8.2 4 3 4s3-.2 3-3.8c0-3.5.8-5.8 1.7-4.9.2.2.4 2.2.5 4.5zm-114.7-2.9c-.8 1.4-7.4 3.4-9 2.7-.8-.3-1.2-1.2-.9-2.1.4-1.1 2-1.5 5.6-1.5 2.8 0 4.7.4 4.3.9zm57.1 2.5c-3.8 3.2-4.1 3.3-6.3 1.8-1.7-1-2-1.7-1.2-2.2.6-.4.8-1.3.5-1.9-.5-.8 1.1-1.1 5.1-1.1l5.8.1-3.9 3.3zm-69.5 5.9c-.6 1.5-1.7 2.7-2.5 2.7s-10.5 4.2-21.5 9.4-23 10.8-26.8 12.4c-10.8 4.8-32.6 12.4-35.5 12.6-1.4 0-2.4.5-2.1.9.2.4-.8.5-2.4.2-2.2-.5-2.5-.4-1.3.4 1.1.8.7 1-2 .5-2.8-.4-3.2-.3-2 .6 1.2.9 1.1 1-.7.5-1.2-.3-7.3.5-13.5 1.9-27.7 6.2-59.7 8.8-80.8 6.7-21.5-2.2-43.2-7.6-56.5-14.2-5.7-2.8-5.9-3.1-.6-1.4 1.5.4 2.1.3 1.7-.3-.4-.6.8-.6 3.5 0 2.5.7 3.8 1.5 3.5 2.3-.8 2.3 24.1 8.4 42.6 10.4 12.2 1.4 41.4 1.4 53.3.1 30.3-3.3 59.1-10.5 89.5-22.3 11-4.2 12.3-5.7 3-3.3-3 .8-5.6 1.3-5.8 1.2-.1-.2 2.6-1.3 6-2.6 20-7.1 47.1-19.9 49-23 1.2-1.9 1.3-1.9 2.1-.2.5 1 .4 3-.2 4.5zm172.6 2.7c14.1 6.7 26.9 12.1 36.6 15.5 8.5 3 10 4.3 2.2 2-12.8-3.9-6.3-.3 10.6 5.8 28 10.2 51.7 15.9 79.4 19.2 20.9 2.6 54 1.7 72.7-1.9 15.3-2.9 31.6-7.9 40.4-12.5l5.9-3-3.5-.1c-3.2 0-2.9-.3 4-3.3 8.9-3.9 23.9-13 33-19.9l6.5-4.9-7.6 7.3c-13.5 12.9-47.2 51.4-52.4 59.8-4.5 7.3-15.7 22.1-16.3 21.5-.7-.7-3.2 1.5-3.2 2.7 0 .6.8.4 1.8-.3 1.5-1.3 1.6-1.2.3.3-.7 1-1.7 1.6-2.1 1.3-1.6-1-32 42.8-46.4 66.8-7.3 12.1-27.6 49.8-27.6 51.2 0 .3.5.3 1.1-.1.6-.3-2.6 6.5-7.1 15.2-4.4 8.8-9.7 19.5-11.7 23.9-2 4.4-5.8 12.9-8.6 19-2.7 6-6.6 15.5-8.6 21.1l-3.6 10.1v-19.9c0-14.4.3-18.9 1-16.6l1 3.3.3-4.5c.2-2.5 0-7.4-.4-11-.7-5.8-.8-6.1-1.4-3-.5 3.1-.7 2.7-1.8-4-.7-4.1-1.6-8.6-1.9-9.9-.4-1.8-.3-2.2.7-1.6.9.6 1 0 .5-2.6-1.3-6.2-6.5-20.3-7.8-21.1-.6-.4-.7-.8-.2-.8.6 0 .4-.4-.4-.9-.7-.5-1.3-2-1.3-3.5s-.5-2.3-1.1-1.9c-.6.4-.8 0-.4-1 .3-1 .3-1.7-.1-1.7-.5 0-1.9-2.6-3.2-5.8-1.3-3.1-3.8-8.7-5.6-12.3-1.8-3.7-3-6.9-2.7-7.3.4-.3-.3-1.5-1.5-2.6s-1.9-2.6-1.6-3.3c.7-1.8-16-26.5-27.1-40.2-10.9-13.4-43-45.9-44.5-45-.6.4-5.2-3.3-10.3-8.2-5.1-4.9-13.2-11.9-18.1-15.6-8.5-6.3-12-7.8-14.1-5.9-1.6 1.4-8.5 5.4-8.5 4.9 0-.2 1.8-1.6 4-3.1 2.5-1.6 4-3.4 4-4.7 0-1.6.4-1.9 2-1.4 1.3.4 3.1 0 4.5-.9 2.4-1.6 2.5-1.5 2.5.3 0 1.3 5.2 6 16 14.6 8.8 7 16 12.9 16 13.2 0 .2-1.2-.5-2.7-1.6-4.9-4-3.4-1.3 2.4 4 10.8 10 26.1 24.9 33.1 32.2 15.9 16.5 34.4 39.8 40.4 50.7 1.4 2.5 3.9 6.8 5.7 9.6 1.7 2.9 5.1 9.4 7.5 14.5 10 21.6 15.3 39.7 18.1 61.9 1.4 11.5 2.5 16.3 2.5 11.1v-2.3l2 2.3 1.9 2.4.1-7.3c0-8.5-1.4-18.4-4.1-29.7-2.8-11.6-7-22.6-8.2-21.8-.6.4-.7.1-.3-.6 1-1.6-1.3-7.3-2.6-6.5-.6.4-.7-.2-.3-1.7.4-1.3.4-2.1-.1-1.6-.4.4-3.3-4.6-6.4-11-3.2-6.5-7.6-15-10-18.8-2.3-3.9-4.9-8.3-5.9-9.9-15-26.2-58-70.8-94.2-97.6l-7.7-5.8 3.5-3.3c7.7-7.5 15.7-20.7 18.8-31.2.9-3.1 1.8-5.7 1.9-5.7.2 0 5.4 2.4 11.7 5.4C604.7 496.6 654.8 510 703 510c27.8.1 52.1-4.3 72-12.9 5.1-2.3 9.6-4.1 9.8-4.1.3 0-2.8 3.5-6.9 7.8-32.1 33.9-69.5 85-89.4 122.2-20.1 37.7-39.5 80.8-39.5 87.8 0 3.7 2.9-1.7 8.4-16.1 3.2-8.1 5.9-14.7 6.2-14.7.2 0 .1 1.5-.3 3.2-.3 1.8-.4 3.1-.1 2.8.3-.3 7.7-14.7 16.5-32 16.9-33.3 23.6-45.1 36.6-64.5 14.7-22 36.6-51.4 49-65.8 7.8-9.1 3.1-6.6-6.8 3.5l-8.9 9.3 6.4-7.7c3.6-4.2 11.7-13.4 18.1-20.5 14.7-16.3 16.5-19.3 11.2-19.3-1.6 0-5.2 1.1-8.1 2.5-6.1 2.8-7.5 3.1-4.7 1.1 1-.7-2.1 0-6.9 1.6-17.4 5.8-42.6 9.8-62 9.8-24.4 0-60.9-5.9-87.5-14.1-3.5-1-7.2-1.7-8.1-1.4-3.2 1-37.6-13.2-64-26.5-5.5-2.8-11.1-5-12.5-5-1.7 0-2.5-.5-2.5-1.8 0-1-.5-2.3-1.2-3-.8-.8-.8-1.5.2-2.7 1.3-1.5 1.5-1.5 2.1.4.5 1.3 4.6 3.8 11.6 7.1zm-95.1-2.5c-.1 4.2-.4 5.4-1.4 5-.8-.3-2.5-.8-3.8-1.1-1.3-.3-2.4-.8-2.4-1 0-.3 7.2-8.2 7.6-8.4v5.5zm12.8 1.3c.6 1.3-6.1 4.9-7.1 3.8-.3-.3-.2-2.6.1-5.1l.7-4.5 2.9 2.2c1.6 1.3 3.1 2.9 3.4 3.6zm-22.9-1.4c-2.3 3.5-4.2 3.9-4.8 1-.3-1.6 0-2.4.7-2.1.6.2 2 .1 3.1-.4 1.1-.4 2.1-.8 2.3-.8.1-.1-.5 1-1.3 2.3zm29.3.5c-1.8 3-3.5 3.3-4 .7-.4-1.8-.1-2.2 1.3-1.9.9.3 2 0 2.4-.7.4-.6.9-.9 1.2-.7.2.3-.1 1.4-.9 2.6zm-16.1 7.8c-.3.3-1.5.2-2.7-.2-2-.6-2.1-.7-.3-2 1.5-1.1 1.9-1.1 2.6.2.5.8.7 1.7.4 2zM98.5 474.3c4.4 2.2 10.7 5 14 6.3 5.8 2.3 5.9 2.3 1.8 1.7-4.7-.6-5.2 0-2.6 3 1.7 1.8 1.7 1.9 0 2.8-3 1.7-1.9 4.7 5.1 12.6 10.2 11.8 13.1 15.8 12.3 17.1-.9 1.5-6-3.7-25.1-26.3-8.4-9.9-18-20.8-21.4-24.3l-6.1-6.3 7 4.7c3.8 2.5 10.6 6.4 15 8.7zm274.9.8c1.6 3.1 6.2 9.8 10.3 14.8 4 5 7.3 9.9 7.3 11 0 1.3-4 5-12.2 11.4-29.8 23-64.1 57.4-83.6 83.8-11.4 15.6-25.4 41.8-32.6 61.2-6.8 18.3-12.5 49.4-9.8 53.8.7 1 1.2 3.9 1.2 6.3 0 2.5.4 4.7.9 5.1 1.9 1.1 3-3.2 3.5-14.5.9-17.4 4.9-35.1 11.7-52.3 4.7-12 18.3-38.5 24.2-47.1 12.3-18.4 31.8-40.7 56.6-64.8 10.8-10.5 18-18 16.1-16.7-7.1 4.7-18.9 14.7-32 27.3-12.2 11.8-12.5 12-3.5 2.7 12.3-12.6 28.9-27.4 48-42.7 8.3-6.5 14.5-12.2 14.5-13.2.1-1.6.1-1.6 1.1 0 1.3 2.2 4.7 2.3 7 .2 1.7-1.6 1.8-1.5.6 1.5-.8 2.1-1.8 3.1-3.2 3.1-4.6 0-28.6 21-54.5 47.6-8.5 8.7-15.9 15.9-16.5 15.9-1.7 0-22.2 25.2-29.6 36.5-16.6 25-31 58.5-36.3 84.3-1.8 8.5-3.1 24.1-1.6 19.2.6-2 .6-.3.2 5-.4 4.4-.7 14.8-.7 23v15l-3.6-9c-4.7-11.9-19.2-45.1-22.2-51.2-3.7-7.2-5.7-12.4-4.7-11.8.6.3 1 .4 1 0 0-3.4-23.7-48.8-36.1-69.1-11.3-18.6-30.1-46.2-45.1-66.2-7.5-10-13.5-18.2-13.3-18.2.7 0 14.8 18 25.2 32.1 24.2 32.8 36.9 53.4 56.4 91.4 7.3 14.3 13.8 26.3 14.5 26.8 1.1.6 11.9 26.7 13.8 33.4.7 2 3.4 3.9 4.4 2.9.2-.3.1-2.2-.3-4.2-.4-2.5-.9-3.3-1.5-2.5-.4.7-1 .9-1.3.4-1.2-2-5.7-14.6-5.3-15 .2-.2.9 1.2 1.6 3.2.7 2 1.4 3.4 1.6 3.2.9-.9-5.8-16.7-6.8-16-.6.3-.8.1-.5-.5 1-1.5-.3-4.3-1.6-3.5-.6.4-.8 0-.4-1 .3-1 .2-1.7-.4-1.7-.6 0-.8-.4-.5-.9.8-1.3-.4-4.2-1.5-3.5-.9.5-1.1 0-1.3-2.9-.1-.6-.4-1.4-.7-1.7-.3-.3-6.6-12.4-14.1-27-15.1-29.6-20.1-38.2-36.1-62-18-26.9-32.5-45.6-54.9-71.3-7.1-8-12.8-14.9-12.8-15.4 0-.4.4-.3.8.3 2.1 3.3 22.5 11.1 37.3 14.2 14.6 3.2 26.7 4.3 45.3 4.2 18.8 0 33.4-1.5 53.1-5.5 32-6.4 68.8-19.3 104-36.3l14-6.8 1 4c.6 2.3 2.4 6.6 3.9 9.7zm65.6-11c2.2 1.2 5 1.9 6.1 1.6 1.8-.5 2-.2 1.5 1.6-.3 1.2-.6 4.6-.6 7.4v5.3h-3.5c-3.1 0-3.5.3-3.5 2.6 0 1.4.4 2.3 1 1.9.6-.3 1-.2 1 .4 0 .5-.6 1.2-1.2 1.4-.7.3.6.6 3 .6 2.6.1 4.2.6 4.2 1.3 0 1 .2 1 .9 0 .7-1.1 1-1 1.5.3 1 2.6.1 3.2-4.1 2.6-3.5-.4-3.6-.5-1.3-1.2 2.2-.6 2-.7-1.2-.8-2.8-.1-3.8.3-3.8 1.4 0 .8.5 1.5 1 1.5s.9.6.7 1.2c-.1.7.9 1.4 2.3 1.6 4.5.7 4.6 2.2.2 2.2-3.3 0-4.2.4-4.2 1.8 0 .9.9 2.3 2.1 3 2 1.3 2 1.3-.5 4.3-1.4 1.6-3 4.6-3.6 6.7-1.3 5-1.3 5.7.5 4.2 1.3-1 1.5-.9 1.5.9 0 1.6-.6 2.1-2.5 2.1-1.6 0-2.3-.4-1.9-1.3.3-.9-1.2-1.7-4.8-2.6-7.2-1.6-31-13.2-24.6-11.9 1.7.4 5.8-7.9 5.8-11.7.1-2.8.1-2.9 1.5-1.1 1.5 1.9 1.5 1.9 4-.4 1.8-1.7 2.2-2.6 1.3-3.1-.7-.4-1.6-.5-2-.3-.4.3-.5-.2-.2-1 .4-.9-.1-1.8-1-2.2-2.6-1-1.8-2.4 1.4-2.4 2 0 2.8.4 2.4 1.3-.3.8.1 1.9.9 2.5 1.1.9 1.9.7 3.6-1.2 2.2-2.4 1.4-4.5-1.1-3-.7.5-.8.3-.3-.6.5-.8 0-1.9-1.5-3l-2.3-1.7 2.8-.5c2.3-.5 2.8-.1 3.7 2.3 1.2 3.4 1.9 3.6 4.2 1 1.9-2.1 1.3-4.6-.7-3.5-.7.4-.9.3-.4-.1.4-.5 0-1.6-.9-2.6-1.4-1.5-1.1-2 3.3-6.3 2.6-2.5 4.9-4.6 5-4.6.1 0 2.1 1 4.3 2.1zm30.8 2l4.3 4.2-2.7 2.8-2.6 2.7 2.1 2.3 2.1 2.3 2.8-2.7c3.7-3.5 5-2.2 1.5 1.5-2.1 2.2-2.3 2.8-1 2.8 1 0 1.4.5 1.1 1.4-1 2.7 1.8 2.8 4.5.2 3.6-3.5 4.9-2 1.4 1.6l-2.7 2.8h2.5c1.9 0 2.1.2.9 1-1.1.7-1.2 1.2-.3 2.1 1.4 1.4 3.3.4 3.3-1.7 0-.8.5-1.2 1-.9.6.4.8 1.5.5 2.4-.3 1 .6 3.9 2 6.5 3.5 6.7 3.3 8.1-2.1 11.2-7.9 4.6-25.4 10.3-25.4 8.3 0-.5-.7-.9-1.5-.9s-1.5-.5-1.5-1.1c0-.5.5-.7 1-.4 1.3.8 1.3-.5 0-2.5-.8-1.2-1-1.3-1-.1 0 1.1-5-7.5-5-8.6 0-.1 1.2-.1 2.7 0 2.3.2 2.9-.3 3.1-2.2.3-1.9 0-2.2-1.4-1.7-1.4.5-1.5.4-.4-.9s.7-1.5-2.9-1.5c-2.2 0-4.1-.5-4.1-1 0-.6 1.8-1 3.9-1 2.2 0 4.3-.5 4.7-1.1.9-1.6-1.7-6.1-3.3-5.5-.7.3-2.3.1-3.5-.4-1.9-.7-1.6-.9 1.9-.9 4.7-.1 5.8-1.1 4.9-4.7-.5-2-1.2-2.4-4.6-2.4-4 0-4 0-4-3.9 0-7.7.9-9.9 4.4-10.5 1.8-.4 4.1-1.3 5.2-2.1 2.8-2.1 3.5-1.9 8.2 2.6zm10.5 2.4c-1.8 2.4-3.4 2.8-4 .9-.3-.8 1.5-1.9 5.5-3.3.2-.1-.5 1-1.5 2.4zm6.1 5c-3 4-4 4.3-4.7 1.4-.4-1.5-.2-1.9.8-1.5.8.3 2.4-.4 3.7-1.4 3.2-2.7 3.3-2.5.2 1.5zm-399.4 2c1.3 1.4 2.1 2.5 1.8 2.5-.2 0-1.5-1.1-2.8-2.5-1.3-1.4-2.1-2.5-1.8-2.5.2 0 1.5 1.1 2.8 2.5zm408 2.6c-.8 1.4-.8 2.4-.1 3.3.6.6.8 2.2.5 3.3-.6 2.3-4 3.7-5 2.1-.3-.5-1.8-.7-3.2-.3-2.6.6-2.6.6-.8-1.4 1-1.1 1.6-2.9 1.4-3.9-.4-1.4-.1-1.8 1.1-1.5.9.2 2.5-.5 3.6-1.6 2.6-2.6 3.9-2.6 2.5 0zm-45 4c0 .5-1.5.9-3.2.9h-3.3l2.5-1.4c2.6-1.3 4-1.2 4 .5zm-61.1 5.2c-1.7 1.7-2.9 2.1-4.1 1.5-2.1-1-2.5-3-.5-2.2.7.2 2.4 0 3.8-.5 3.4-1.4 3.5-1.3.8 1.2zm118.4 1c1.9.1 2.3 2.7.6 4.4-.9.9-2.1.4-5-2-4.7-3.9-4.9-4.9-.6-3.5 1.7.6 4 1.1 5 1.1zm-110.9 1.9c-1.6 1.8-3 3.5-3.2 3.8-.2.2-.6 0-1-.6s-1.5-1.3-2.4-1.7c-1-.3-1.8-1.2-1.8-1.9 0-1 .2-1 .9 0 .6 1.1 1.5.9 4.2-.7 5.2-3.2 6.8-2.6 3.3 1.1zm230.3-.6c-.3.3-1.2.4-1.9.1-.8-.3-.5-.6.6-.6 1.1-.1 1.7.2 1.3.5zm-133.4 1.9c-.3.9-.8 1.4-1 1.1-.3-.3-.2-.9.2-1.5.9-1.6 1.5-1.3.8.4zm-90.2 5c-1.9 4.2-2.2 4.5-4 3.3-2-1.2-1.9-1.4 1.6-5 2-2.1 3.8-3.6 4.1-3.4.2.3-.6 2.5-1.7 5.1zm98.1 1c.4.5 0 1.7-.9 2.5-1.2 1.1-1.7 1.2-2 .2-.3-.6-1.1-1.2-1.8-1.2-.8 0-1.9-.9-2.5-1.9-1.3-2.5-1.3-3.4 0-2.6.6.3 1-.2 1-1.1 0-1.5.4-1.4 2.7.7 1.5 1.3 3.1 2.8 3.5 3.4zm9.2-4.2c-.2.7-1.8 2.1-3.3 3-2.6 1.5-2.9 1.5-3.5.1-.4-1.1-.2-1.5.8-1.1.8.3 2.5-.3 3.8-1.3 2.8-2.3 2.9-2.4 2.2-.7zm-115.7 2.8c-.8 1.3-1.6 1.5-2.8.8-3-1.6-2.8-2.4.6-2.5 2.9 0 3.2.2 2.2 1.7zm59.1 3.5c1.5-.5 1.5-.4 0 .8-1 .7-1.8 2.1-1.8 3 0 1.1-.9 1.6-2.9 1.6-1.5 0-4.1 1-5.7 2.2l-2.9 2.3 2.3-2.9c2.7-3.5 2.7-4.5.5-6.2-1.7-1.2-1.6-1.3.4-1.4 1.2 0 2.8-.6 3.4-1.3 1.1-1.1 1.6-1 3.2.6 1 1 2.6 1.6 3.5 1.3zm2.2 16.7c0 2.2-.4 2.8-1.7 2.5-1.9-.3-3-6.6-1.7-9.7.5-1.3.9-1 2 1.4.7 1.6 1.3 4.3 1.4 5.8zm-9.4-2.6c-.1 3.3.3 4.7 1.2 4.5.6-.1 1.2.2 1.2.7 0 1.2-3.9 2.5-4.7 1.7-.4-.3.2-.6 1.3-.7 1.1 0 .5-.5-1.5-1.2-1.9-.7-3.6-1.9-3.9-2.7-.3-1.3-.2-1.3.6-.1.8 1.1 1.5.5 3.1-2.7 1.2-2.3 2.3-4.2 2.4-4.2.2 0 .3 2.1.3 4.7zm12.9 5.3c-.3.5-1.1 1-1.6 1-.6 0-.7-.5-.4-1 .3-.6 1.1-1 1.6-1 .6 0 .7.4.4 1zM749 538.4c0 .2-.8 1-1.7 1.7-1.6 1.3-1.7 1.2-.4-.4 1.3-1.6 2.1-2.1 2.1-1.3zm-4 5c0 .2-.8 1-1.7 1.7-1.6 1.3-1.7 1.2-.4-.4 1.3-1.6 2.1-2.1 2.1-1.3zm-3 4c0 .2-.8 1-1.7 1.7-1.6 1.3-1.7 1.2-.4-.4 1.3-1.6 2.1-2.1 2.1-1.3zm-402 4.9c0 .2-1.9 2.1-4.2 4.2l-4.3 4 4-4.3c3.6-3.9 4.5-4.7 4.5-3.9zm-20 18c0 .2-1.5 1.6-3.2 3.3l-3.3 2.9 2.9-3.3c2.8-3 3.6-3.7 3.6-2.9zm7 3.1c0 .2-.8 1-1.7 1.7-1.6 1.3-1.7 1.2-.4-.4 1.3-1.6 2.1-2.1 2.1-1.3zm-15 6c0 .2-.8 1-1.7 1.7-1.6 1.3-1.7 1.2-.4-.4 1.3-1.6 2.1-2.1 2.1-1.3zm363.1 79.9c-1 .9-1.1.8-.5-.6.3-1 .9-1.5 1.2-1.2.3.3 0 1.1-.7 1.8zm-418 46c-.8.8-1.1.5-1.1-.9 0-2.7 1.4-4.1 1.8-1.9.2.9-.1 2.2-.7 2.8zm5.6 13.9c-.3.7-.5.2-.5-1.2s.2-1.9.5-1.3c.2.7.2 1.9 0 2.5z"/><path d="M476.7 399.8c-2.2 2.5-2.1 3.4.6 6 3 2.9 4.1 2.8 3.3-.2-.5-2.1-.3-2.3 1.7-1.9 2 .5 2 .4-.7-2.6-1.7-1.7-3-3.1-3.1-3.1-.1 0-.9.8-1.8 1.8zM401.1 475.4c-2 2.1-2 2.4-.6 3.6 1.4 1.1 1.8 1.1 2.5.1.5-.9 1-1 1.4-.2.8 1.2 4.3 1.5 4.9.3.2-.4-1-1.9-2.8-3.4l-3.2-2.7-2.2 2.3zM124.5 489c2.7 1.2 4.3 1.2 2.5 0-.8-.5-2.2-.9-3-.9-1 0-.8.3.5.9zM635.6 689.5c.4.8.8 1.5 1 1.5.2 0 .4-.7.4-1.5s-.4-1.5-1-1.5c-.5 0-.7.7-.4 1.5zM637.2 695c0 1.4.2 1.9.5 1.2.2-.6.2-1.8 0-2.5-.3-.6-.5-.1-.5 1.3zM332.1 564.5c-3.3 3.8-4.1 5.6-1.6 3.5 1.8-1.5 5.9-7 5.2-7-.3 0-1.9 1.6-3.6 3.5zM246 700.5c0 .5.5 1.7 1 2.5s1 1 1 .5c0-.6-.5-1.7-1-2.5s-1-1.1-1-.5z"/></svg>